<svg xmlns="http://www.w3.org/2000/svg" xmlns:xlink="http://www.w3.org/1999/xlink" viewBox="112.429 70.142 435.321 211.103" width="435.321" height="211.103">
<polygon points="0,0 0,340 558,340 558,0" fill="#ffffff00" stroke="none" />
<path d="M 184.500,281.000 C 187.567,279.095 187.500,279.000 190.500,277.000" stroke-width="4.245" stroke="#ffffff" fill="none" stroke-linecap="round"></path><path d="M 190.500,277.000 C 198.275,271.836 198.067,271.595 205.500,266.000" stroke-width="3.212" stroke="#ffffff" fill="none" stroke-linecap="round"></path><path d="M 205.500,266.000 C 210.652,260.577 211.275,261.336 216.500,256.000" stroke-width="2.541" stroke="#ffffff" fill="none" stroke-linecap="round"></path><path d="M 216.500,256.000 C 234.089,243.118 233.652,242.577 251.500,230.000" stroke-width="2.250" stroke="#ffffff" fill="none" stroke-linecap="round"></path><path d="M 251.500,230.000 C 270.067,214.881 270.589,215.618 289.500,201.000" stroke-width="2.250" stroke="#ffffff" fill="none" stroke-linecap="round"></path><path d="M 289.500,201.000 C 302.445,193.611 301.567,192.381 314.500,185.000" stroke-width="2.250" stroke="#ffffff" fill="none" stroke-linecap="round"></path><path d="M 314.500,185.000 C 323.311,178.342 323.445,178.611 331.500,171.000" stroke-width="2.250" stroke="#ffffff" fill="none" stroke-linecap="round"></path><path d="M 331.500,171.000 C 337.226,164.704 337.811,165.342 343.500,159.000" stroke-width="2.250" stroke="#ffffff" fill="none" stroke-linecap="round"></path><path d="M 343.500,159.000 C 354.355,150.384 353.726,149.704 364.500,141.000" stroke-width="2.250" stroke="#ffffff" fill="none" stroke-linecap="round"></path><path d="M 364.500,141.000 C 374.000,131.500 374.355,131.884 383.500,122.000" stroke-width="2.250" stroke="#ffffff" fill="none" stroke-linecap="round"></path><path d="M 383.500,122.000 C 394.206,110.684 394.500,111.000 405.500,100.000" stroke-width="2.250" stroke="#ffffff" fill="none" stroke-linecap="round"></path><path d="M 405.500,100.000 C 413.031,93.535 412.706,93.184 420.500,87.000" stroke-width="2.250" stroke="#ffffff" fill="none" stroke-linecap="round"></path><path d="M 420.500,87.000 C 425.256,83.244 425.031,83.035 429.500,79.000" stroke-width="2.362" stroke="#ffffff" fill="none" stroke-linecap="round"></path><path d="M 429.500,79.000 C 434.003,74.755 431.756,76.744 433.500,74.000" stroke-width="3.197" stroke="#ffffff" fill="none" stroke-linecap="round"></path><path d="M 433.500,74.000 C 430.478,74.937 433.003,73.255 427.500,76.000" stroke-width="3.858" stroke="#ffffff" fill="none" stroke-linecap="round"></path><path d="M 427.500,76.000 C 423.363,77.217 423.478,77.437 419.500,79.000" stroke-width="3.655" stroke="#ffffff" fill="none" stroke-linecap="round"></path><path d="M 419.500,79.000 C 417.130,80.754 416.863,80.217 414.500,82.000" stroke-width="3.437" stroke="#ffffff" fill="none" stroke-linecap="round"></path><path d="M 414.500,82.000 C 407.647,85.385 407.630,85.254 400.500,88.000" stroke-width="2.558" stroke="#ffffff" fill="none" stroke-linecap="round"></path><path d="M 400.500,88.000 C 386.573,91.454 387.147,92.885 373.500,97.000" stroke-width="2.250" stroke="#ffffff" fill="none" stroke-linecap="round"></path><path d="M 373.500,97.000 C 353.899,106.301 353.573,105.454 334.500,116.000" stroke-width="2.250" stroke="#ffffff" fill="none" stroke-linecap="round"></path><path d="M 334.500,116.000 C 325.905,120.331 325.899,120.301 317.500,125.000" stroke-width="2.250" stroke="#ffffff" fill="none" stroke-linecap="round"></path><path d="M 317.500,125.000 C 312.593,128.170 312.405,127.831 307.500,131.000" stroke-width="2.330" stroke="#ffffff" fill="none" stroke-linecap="round"></path><path d="M 307.500,131.000 C 303.323,132.706 303.593,133.170 299.500,135.000" stroke-width="2.731" stroke="#ffffff" fill="none" stroke-linecap="round"></path><path d="M 299.500,135.000 C 295.940,137.420 295.823,137.206 292.500,140.000" stroke-width="2.865" stroke="#ffffff" fill="none" stroke-linecap="round"></path><path d="M 292.500,140.000 C 290.000,142.000 289.940,141.920 287.500,144.000" stroke-width="3.136" stroke="#ffffff" fill="none" stroke-linecap="round"></path><path d="M 287.500,144.000 C 285.081,146.108 285.000,146.000 282.500,148.000" stroke-width="3.228" stroke="#ffffff" fill="none" stroke-linecap="round"></path><path d="M 282.500,148.000 C 277.577,151.615 277.581,151.608 272.500,155.000" stroke-width="2.724" stroke="#ffffff" fill="none" stroke-linecap="round"></path><path d="M 272.500,155.000 C 265.673,159.795 265.577,159.615 258.500,164.000" stroke-width="2.392" stroke="#ffffff" fill="none" stroke-linecap="round"></path><path d="M 258.500,164.000 C 250.625,167.419 251.173,168.295 243.500,172.000" stroke-width="2.291" stroke="#ffffff" fill="none" stroke-linecap="round"></path><path d="M 243.500,172.000 C 237.268,177.398 236.625,176.419 230.500,182.000" stroke-width="2.291" stroke="#ffffff" fill="none" stroke-linecap="round"></path><path d="M 230.500,182.000 C 224.583,185.654 224.768,185.898 218.500,189.000" stroke-width="2.417" stroke="#ffffff" fill="none" stroke-linecap="round"></path><path d="M 218.500,189.000 C 214.451,190.908 214.583,191.154 210.500,193.000" stroke-width="2.728" stroke="#ffffff" fill="none" stroke-linecap="round"></path><path d="M 210.500,193.000 C 206.206,195.954 205.951,195.408 201.500,198.000" stroke-width="2.780" stroke="#ffffff" fill="none" stroke-linecap="round"></path><path d="M 201.500,198.000 C 194.590,200.784 194.706,200.954 187.500,203.000" stroke-width="2.451" stroke="#ffffff" fill="none" stroke-linecap="round"></path><path d="M 187.500,203.000 C 178.460,205.365 178.590,205.784 169.500,208.000" stroke-width="2.250" stroke="#ffffff" fill="none" stroke-linecap="round"></path><path d="M 169.500,208.000 C 161.385,210.184 161.460,210.365 153.500,213.000" stroke-width="2.250" stroke="#ffffff" fill="none" stroke-linecap="round"></path><path d="M 153.500,213.000 C 147.500,215.500 147.385,215.184 141.500,218.000" stroke-width="2.436" stroke="#ffffff" fill="none" stroke-linecap="round"></path><path d="M 141.500,218.000 C 135.534,220.586 135.500,220.500 129.500,223.000" stroke-width="2.515" stroke="#ffffff" fill="none" stroke-linecap="round"></path><path d="M 129.500,223.000 C 125.571,224.747 125.534,224.586 121.500,226.000" stroke-width="3.173" stroke="#ffffff" fill="none" stroke-linecap="round"></path><path d="M 121.500,226.000 C 116.272,227.000 119.071,226.747 116.500,227.000" stroke-width="3.657" stroke="#ffffff" fill="none" stroke-linecap="round"></path><path d="M 116.500,227.000 C 119.583,226.833 116.772,227.000 122.500,226.000" stroke-width="4.071" stroke="#ffffff" fill="none" stroke-linecap="round"></path><path d="M 122.500,226.000 C 129.835,222.869 130.083,223.833 137.500,221.000" stroke-width="2.611" stroke="#ffffff" fill="none" stroke-linecap="round"></path><path d="M 137.500,221.000 C 150.534,218.669 150.335,217.869 163.500,216.000" stroke-width="2.250" stroke="#ffffff" fill="none" stroke-linecap="round"></path><path d="M 163.500,216.000 C 184.373,210.798 184.534,211.669 205.500,207.000" stroke-width="2.250" stroke="#ffffff" fill="none" stroke-linecap="round"></path><path d="M 205.500,207.000 C 229.030,203.692 228.873,202.798 252.500,200.000" stroke-width="2.250" stroke="#ffffff" fill="none" stroke-linecap="round"></path><path d="M 252.500,200.000 C 273.422,195.935 273.530,196.692 294.500,193.000" stroke-width="2.250" stroke="#ffffff" fill="none" stroke-linecap="round"></path><path d="M 294.500,193.000 C 312.938,189.844 312.922,190.435 331.500,189.000" stroke-width="2.250" stroke="#ffffff" fill="none" stroke-linecap="round"></path><path d="M 331.500,189.000 C 357.000,189.000 356.938,187.844 382.500,189.000" stroke-width="2.250" stroke="#ffffff" fill="none" stroke-linecap="round"></path><path d="M 382.500,189.000 C 395.500,189.000 395.500,189.000 408.500,189.000" stroke-width="2.250" stroke="#ffffff" fill="none" stroke-linecap="round"></path><path d="M 408.500,189.000 C 419.500,189.000 419.500,189.000 430.500,189.000" stroke-width="2.250" stroke="#ffffff" fill="none" stroke-linecap="round"></path><path d="M 430.500,189.000 C 439.016,189.314 439.000,189.000 447.500,189.000" stroke-width="2.250" stroke="#ffffff" fill="none" stroke-linecap="round"></path><path d="M 447.500,189.000 C 452.590,188.921 452.516,188.814 457.500,188.000" stroke-width="2.517" stroke="#ffffff" fill="none" stroke-linecap="round"></path><path d="M 457.500,188.000 C 460.529,187.080 460.590,187.421 463.500,186.000" stroke-width="3.006" stroke="#ffffff" fill="none" stroke-linecap="round"></path><path d="M 463.500,186.000 C 469.237,184.000 466.029,185.080 468.500,184.000" stroke-width="3.283" stroke="#ffffff" fill="none" stroke-linecap="round"></path><path d="M 468.500,184.000 C 463.881,184.598 467.237,184.000 459.500,186.000" stroke-width="3.785" stroke="#ffffff" fill="none" stroke-linecap="round"></path><path d="M 459.500,186.000 C 451.838,190.863 451.381,188.598 443.500,192.000" stroke-width="2.556" stroke="#ffffff" fill="none" stroke-linecap="round"></path><path d="M 443.500,192.000 C 429.450,192.886 429.838,193.863 415.500,192.000" stroke-width="2.250" stroke="#ffffff" fill="none" stroke-linecap="round"></path><path d="M 415.500,192.000 C 398.049,189.329 397.950,190.886 380.500,188.000" stroke-width="2.250" stroke="#ffffff" fill="none" stroke-linecap="round"></path><path d="M 380.500,188.000 C 365.004,187.225 365.049,186.829 349.500,187.000" stroke-width="2.250" stroke="#ffffff" fill="none" stroke-linecap="round"></path><path d="M 349.500,187.000 C 330.500,187.000 330.504,186.725 311.500,187.000" stroke-width="2.250" stroke="#ffffff" fill="none" stroke-linecap="round"></path><path d="M 311.500,187.000 C 293.500,187.000 293.500,187.000 275.500,187.000" stroke-width="2.250" stroke="#ffffff" fill="none" stroke-linecap="round"></path><path d="M 275.500,187.000 C 262.993,186.716 263.000,187.000 250.500,187.000" stroke-width="2.250" stroke="#ffffff" fill="none" stroke-linecap="round"></path><path d="M 250.500,187.000 C 240.972,187.242 240.993,187.216 231.500,188.000" stroke-width="2.250" stroke="#ffffff" fill="none" stroke-linecap="round"></path><path d="M 231.500,188.000 C 228.500,188.500 228.472,188.242 225.500,189.000" stroke-width="2.721" stroke="#ffffff" fill="none" stroke-linecap="round"></path><path d="M 225.500,189.000 C 222.524,189.784 222.500,189.500 219.500,190.000" stroke-width="3.111" stroke="#ffffff" fill="none" stroke-linecap="round"></path><path d="M 219.500,190.000 C 215.500,190.000 215.524,190.284 211.500,190.000" stroke-width="3.075" stroke="#ffffff" fill="none" stroke-linecap="round"></path><path d="M 211.500,190.000 C 202.500,190.000 202.500,190.000 193.500,190.000" stroke-width="2.336" stroke="#ffffff" fill="none" stroke-linecap="round"></path><path d="M 193.500,190.000 C 179.500,190.000 179.500,190.000 165.500,190.000" stroke-width="2.250" stroke="#ffffff" fill="none" stroke-linecap="round"></path><path d="M 165.500,190.000 C 158.964,189.641 159.000,190.000 152.500,190.000" stroke-width="2.291" stroke="#ffffff" fill="none" stroke-linecap="round"></path><path d="M 152.500,190.000 C 146.939,191.374 149.964,190.141 147.500,191.000" stroke-width="2.975" stroke="#ffffff" fill="none" stroke-linecap="round"></path><path d="M 147.500,191.000 C 151.432,189.294 148.439,190.374 155.500,188.000" stroke-width="3.755" stroke="#ffffff" fill="none" stroke-linecap="round"></path><path d="M 155.500,188.000 C 162.427,185.718 162.432,185.794 169.500,184.000" stroke-width="2.712" stroke="#ffffff" fill="none" stroke-linecap="round"></path><path d="M 169.500,184.000 C 197.267,176.247 197.427,177.218 225.500,171.000" stroke-width="2.250" stroke="#ffffff" fill="none" stroke-linecap="round"></path><path d="M 225.500,171.000 C 254.048,167.319 253.767,165.747 282.500,163.000" stroke-width="2.250" stroke="#ffffff" fill="none" stroke-linecap="round"></path><path d="M 282.500,163.000 C 309.951,158.174 310.048,158.819 337.500,154.000" stroke-width="2.250" stroke="#ffffff" fill="none" stroke-linecap="round"></path><path d="M 337.500,154.000 C 359.413,149.933 359.451,150.674 381.500,148.000" stroke-width="2.250" stroke="#ffffff" fill="none" stroke-linecap="round"></path><path d="M 381.500,148.000 C 399.497,147.295 399.413,146.433 417.500,147.000" stroke-width="2.250" stroke="#ffffff" fill="none" stroke-linecap="round"></path><path d="M 417.500,147.000 C 430.000,147.000 429.997,146.795 442.500,147.000" stroke-width="2.250" stroke="#ffffff" fill="none" stroke-linecap="round"></path><path d="M 442.500,147.000 C 452.000,147.000 452.000,147.000 461.500,147.000" stroke-width="2.250" stroke="#ffffff" fill="none" stroke-linecap="round"></path><path d="M 461.500,147.000 C 467.500,147.000 467.500,147.000 473.500,147.000" stroke-width="2.347" stroke="#ffffff" fill="none" stroke-linecap="round"></path><path d="M 473.500,147.000 C 477.500,147.000 477.500,147.000 481.500,147.000" stroke-width="2.804" stroke="#ffffff" fill="none" stroke-linecap="round"></path><path d="M 481.500,147.000 C 488.081,146.419 484.500,147.000 487.500,147.000" stroke-width="3.448" stroke="#ffffff" fill="none" stroke-linecap="round"></path><path d="M 487.500,147.000 C 483.000,148.500 486.581,147.919 478.500,150.000" stroke-width="3.775" stroke="#ffffff" fill="none" stroke-linecap="round"></path><path d="M 478.500,150.000 C 475.362,150.699 475.500,151.000 472.500,152.000" stroke-width="3.372" stroke="#ffffff" fill="none" stroke-linecap="round"></path><path d="M 472.500,152.000 C 470.137,153.783 469.862,153.199 467.500,155.000" stroke-width="3.357" stroke="#ffffff" fill="none" stroke-linecap="round"></path><path d="M 467.500,155.000 C 463.685,157.190 463.637,156.783 459.500,158.000" stroke-width="3.049" stroke="#ffffff" fill="none" stroke-linecap="round"></path><path d="M 459.500,158.000 C 432.538,162.742 432.685,163.190 405.500,167.000" stroke-width="2.250" stroke="#ffffff" fill="none" stroke-linecap="round"></path><path d="M 405.500,167.000 C 369.040,172.780 369.038,172.742 332.500,178.000" stroke-width="2.250" stroke="#ffffff" fill="none" stroke-linecap="round"></path><path d="M 332.500,178.000 C 295.608,184.024 295.540,183.280 258.500,188.000" stroke-width="2.250" stroke="#ffffff" fill="none" stroke-linecap="round"></path><path d="M 258.500,188.000 C 225.532,191.130 225.608,191.524 192.500,193.000" stroke-width="2.250" stroke="#ffffff" fill="none" stroke-linecap="round"></path><path d="M 192.500,193.000 C 172.502,193.623 172.532,194.130 152.500,194.000" stroke-width="2.250" stroke="#ffffff" fill="none" stroke-linecap="round"></path><path d="M 152.500,194.000 C 146.000,194.000 146.002,194.123 139.500,194.000" stroke-width="2.250" stroke="#ffffff" fill="none" stroke-linecap="round"></path><path d="M 139.500,194.000 C 134.500,194.000 134.500,194.000 129.500,194.000" stroke-width="2.953" stroke="#ffffff" fill="none" stroke-linecap="round"></path><path d="M 129.500,194.000 C 120.133,194.611 126.000,194.000 122.500,194.000" stroke-width="3.446" stroke="#ffffff" fill="none" stroke-linecap="round"></path><path d="M 122.500,194.000 C 141.366,189.249 135.633,190.611 160.500,186.000" stroke-width="3.476" stroke="#ffffff" fill="none" stroke-linecap="round"></path><path d="M 160.500,186.000 C 194.438,180.542 194.366,180.249 228.500,176.000" stroke-width="2.250" stroke="#ffffff" fill="none" stroke-linecap="round"></path><path d="M 228.500,176.000 C 276.961,169.667 276.938,169.542 325.500,164.000" stroke-width="2.250" stroke="#ffffff" fill="none" stroke-linecap="round"></path><path d="M 325.500,164.000 C 375.520,158.679 375.461,158.167 425.500,153.000" stroke-width="2.250" stroke="#ffffff" fill="none" stroke-linecap="round"></path><path d="M 425.500,153.000 C 463.689,149.672 463.520,148.679 501.500,144.000" stroke-width="2.250" stroke="#ffffff" fill="none" stroke-linecap="round"></path><path d="M 501.500,144.000 C 523.701,140.317 523.689,140.672 545.500,135.000" stroke-width="2.250" stroke="#ffffff" fill="none" stroke-linecap="round"></path></svg>